<svg width="262" height="84" viewBox="0 0 262 84" fill="none" xmlns="http://www.w3.org/2000/svg">
<path d="M10.1062 82.0033C9.74333 82.2415 9.22406 82.4796 8.5484 82.7178C7.88524 82.9559 7.08445 83.075 6.14602 83.075C5.13252 83.075 4.27542 82.8619 3.57473 82.4357C2.88655 81.997 2.36103 81.3891 1.99818 80.6119C1.64783 79.8222 1.47266 78.9135 1.47266 77.8856V75.0841C1.47266 73.4796 1.87305 72.2199 2.67384 71.3048C3.48715 70.3772 4.66331 69.9134 6.20233 69.9134C6.76538 69.9134 7.35347 69.9761 7.96657 70.1015C8.59219 70.2268 9.21155 70.4336 9.82466 70.7219L9.29914 72.1321C8.17303 71.6683 7.14701 71.4364 6.2211 71.4364C5.19508 71.4364 4.42557 71.7498 3.91257 72.3765C3.41207 72.9907 3.16182 73.8933 3.16182 75.0841V77.8856C3.16182 79.0137 3.41833 79.91 3.93134 80.5743C4.44434 81.2387 5.22011 81.5708 6.25863 81.5708C6.65903 81.5708 7.06568 81.527 7.47859 81.4392C7.90401 81.3515 8.27938 81.2324 8.6047 81.082V77.6412H6.2211V76.1934H10.1062V82.0033Z" fill="black" fill-opacity="0.8"/>
<path d="M17.9048 74.9336C17.3418 74.9336 16.7912 75.0339 16.2532 75.2345C15.7277 75.435 15.1646 75.8173 14.564 76.3814V82.887H13.025V73.5799H14.4889V75.0841C15.1271 74.4573 15.7089 74.0186 16.2344 73.7679C16.7724 73.5172 17.3292 73.3919 17.9048 73.3919V74.9336Z" fill="black" fill-opacity="0.8"/>
<path d="M26.7108 82.981C26.1352 82.981 25.6722 82.8494 25.3219 82.5862C24.9841 82.3229 24.7463 81.997 24.6087 81.6084C23.9956 82.1474 23.4388 82.5298 22.9383 82.7554C22.4378 82.9685 21.9373 83.075 21.4368 83.075C20.6235 83.075 20.0229 82.8118 19.635 82.2853C19.2471 81.7589 19.0532 81.1133 19.0532 80.3487C19.0532 79.8348 19.147 79.3772 19.3347 78.9761C19.5224 78.575 19.8415 78.2616 20.2919 78.036C20.7424 77.7979 21.3492 77.6788 22.1125 77.6788C22.4503 77.6788 22.8194 77.7038 23.2198 77.754C23.6202 77.7916 24.0269 77.8417 24.4398 77.9044V76.6446C24.4398 75.9427 24.2834 75.4664 23.9706 75.2157C23.6703 74.9524 23.2261 74.8208 22.638 74.8208C21.8372 74.8208 20.9426 75.0402 19.9541 75.4789L19.4661 74.2004C20.0417 73.9371 20.5922 73.7366 21.1177 73.5987C21.6433 73.4608 22.175 73.3919 22.7131 73.3919C23.5889 73.3919 24.2583 73.536 24.7213 73.8243C25.1843 74.1126 25.5033 74.4949 25.6785 74.9712C25.8537 75.4476 25.9413 75.9678 25.9413 76.5318V80.5555C25.9413 80.8438 25.9976 81.0883 26.1102 81.2888C26.2228 81.4768 26.448 81.5708 26.7858 81.5708H26.9923V82.981H26.7108ZM20.5735 80.3299C20.5735 80.7561 20.6736 81.1008 20.8738 81.364C21.074 81.6272 21.3617 81.7589 21.7371 81.7589C22.0624 81.7589 22.4378 81.6649 22.8632 81.4768C23.2886 81.2763 23.8142 80.8814 24.4398 80.2923V79.1077C23.5889 78.9699 22.8382 78.9009 22.1876 78.9009C21.612 78.9009 21.1991 79.02 20.9488 79.2582C20.6986 79.4963 20.5735 79.8536 20.5735 80.3299Z" fill="black" fill-opacity="0.8"/>
<path d="M33.6394 74.8396C33.2891 74.8396 32.8762 74.9274 32.4007 75.1029C31.9378 75.2784 31.3747 75.6356 30.7115 76.1746V82.887H29.1725V73.5799H30.6365V74.8772C31.2996 74.3132 31.9002 73.9246 32.4383 73.7115C32.9888 73.4984 33.5143 73.3919 34.0148 73.3919C34.8782 73.3919 35.5351 73.6676 35.9855 74.2192C36.4485 74.7582 36.6799 75.529 36.6799 76.5318V82.887H35.1409V76.7575C35.1409 75.4789 34.6404 74.8396 33.6394 74.8396Z" fill="black" fill-opacity="0.8"/>
<path d="M45.5441 82.887V81.5896C44.9686 82.1412 44.443 82.5298 43.9676 82.7554C43.5046 82.9685 43.0229 83.075 42.5224 83.075C41.5339 83.075 40.7707 82.699 40.2326 81.9469C39.7071 81.1948 39.4443 80.1419 39.4443 78.7881V77.6976C39.4443 76.3814 39.7697 75.3348 40.4203 74.5576C41.0835 73.7804 42.0407 73.3919 43.2919 73.3919C43.6548 73.3919 44.0176 73.4295 44.3805 73.5047C44.7433 73.5799 45.1062 73.6864 45.469 73.8243V68.9733H47.0081V82.887H45.5441ZM41.0397 78.7881C41.0397 79.7658 41.1898 80.4866 41.4901 80.9504C41.8029 81.4016 42.2659 81.6272 42.879 81.6272C43.2418 81.6272 43.6172 81.5395 44.0051 81.364C44.393 81.176 44.881 80.7937 45.469 80.2171V75.2533C45.1062 75.0903 44.7558 74.9775 44.418 74.9148C44.0802 74.8396 43.7486 74.802 43.4233 74.802C42.5724 74.802 41.9593 75.059 41.584 75.5729C41.2211 76.0868 41.0397 76.7951 41.0397 77.6976V78.7881Z" fill="black" fill-opacity="0.8"/>
<path d="M58.7321 82.0033C58.3692 82.2415 57.85 82.4796 57.1743 82.7178C56.5112 82.9559 55.7104 83.075 54.7719 83.075C53.7584 83.075 52.9013 82.8619 52.2006 82.4357C51.5125 81.997 50.9869 81.3891 50.6241 80.6119C50.2737 79.8222 50.0986 78.9135 50.0986 77.8856V75.0841C50.0986 73.4796 50.499 72.2199 51.2998 71.3048C52.1131 70.3772 53.2892 69.9134 54.8282 69.9134C55.3913 69.9134 55.9794 69.9761 56.5925 70.1015C57.2181 70.2268 57.8375 70.4336 58.4506 70.7219L57.9251 72.1321C56.7989 71.6683 55.7729 71.4364 54.847 71.4364C53.821 71.4364 53.0515 71.7498 52.5385 72.3765C52.038 72.9907 51.7877 73.8933 51.7877 75.0841V77.8856C51.7877 79.0137 52.0442 79.91 52.5572 80.5743C53.0703 81.2387 53.846 81.5708 54.8845 81.5708C55.2849 81.5708 55.6916 81.527 56.1045 81.4392C56.5299 81.3515 56.9053 81.2324 57.2306 81.082V77.6412H54.847V76.1934H58.7321V82.0033Z" fill="black" fill-opacity="0.8"/>
<path d="M68.4451 82.981C67.8695 82.981 67.4066 82.8494 67.0562 82.5862C66.7184 82.3229 66.4807 81.997 66.343 81.6084C65.7299 82.1474 65.1731 82.5298 64.6726 82.7554C64.1721 82.9685 63.6716 83.075 63.1712 83.075C62.3578 83.075 61.7573 82.8118 61.3694 82.2853C60.9815 81.7589 60.7875 81.1133 60.7875 80.3487C60.7875 79.8348 60.8814 79.3772 61.0691 78.9761C61.2568 78.575 61.5758 78.2616 62.0263 78.036C62.4767 77.7979 63.0836 77.6788 63.8468 77.6788C64.1847 77.6788 64.5538 77.7038 64.9542 77.754C65.3546 77.7916 65.7612 77.8417 66.1741 77.9044V76.6446C66.1741 75.9427 66.0177 75.4664 65.7049 75.2157C65.4046 74.9524 64.9604 74.8208 64.3723 74.8208C63.5715 74.8208 62.6769 75.0402 61.6884 75.4789L61.2005 74.2004C61.776 73.9371 62.3266 73.7366 62.8521 73.5987C63.3776 73.4608 63.9094 73.3919 64.4474 73.3919C65.3233 73.3919 65.9927 73.536 66.4557 73.8243C66.9186 74.1126 67.2377 74.4949 67.4128 74.9712C67.588 75.4476 67.6756 75.9678 67.6756 76.5318V80.5555C67.6756 80.8438 67.7319 81.0883 67.8445 81.2888C67.9571 81.4768 68.1824 81.5708 68.5202 81.5708H68.7266V82.981H68.4451ZM62.3078 80.3299C62.3078 80.7561 62.4079 81.1008 62.6081 81.364C62.8083 81.6272 63.0961 81.7589 63.4714 81.7589C63.7968 81.7589 64.1721 81.6649 64.5976 81.4768C65.023 81.2763 65.5485 80.8814 66.1741 80.2923V79.1077C65.3233 78.9699 64.5725 78.9009 63.9219 78.9009C63.3463 78.9009 62.9334 79.02 62.6832 79.2582C62.4329 79.4963 62.3078 79.8536 62.3078 80.3299Z" fill="black" fill-opacity="0.8"/>
<path d="M75.7867 74.9336C75.2236 74.9336 74.6731 75.0339 74.1351 75.2345C73.6095 75.435 73.0465 75.8173 72.4459 76.3814V82.887H70.9069V73.5799H72.3708V75.0841C73.0089 74.4573 73.5908 74.0186 74.1163 73.7679C74.6543 73.5172 75.2111 73.3919 75.7867 73.3919V74.9336Z" fill="black" fill-opacity="0.8"/>
<path d="M83.4478 82.887V81.5896C82.8722 82.1412 82.3467 82.5298 81.8712 82.7554C81.4082 82.9685 80.9265 83.075 80.426 83.075C79.4376 83.075 78.6743 82.699 78.1363 81.9469C77.6107 81.1948 77.348 80.1419 77.348 78.7881V77.6976C77.348 76.3814 77.6733 75.3348 78.324 74.5576C78.9871 73.7804 79.9443 73.3919 81.1955 73.3919C81.5584 73.3919 81.9213 73.4295 82.2841 73.5047C82.647 73.5799 83.0098 73.6864 83.3727 73.8243V68.9733H84.9117V82.887H83.4478ZM78.9433 78.7881C78.9433 79.7658 79.0935 80.4866 79.3938 80.9504C79.7066 81.4016 80.1695 81.6272 80.7826 81.6272C81.1455 81.6272 81.5209 81.5395 81.9088 81.364C82.2966 81.176 82.7846 80.7937 83.3727 80.2171V75.2533C83.0098 75.0903 82.6595 74.9775 82.3217 74.9148C81.9838 74.8396 81.6522 74.802 81.3269 74.802C80.4761 74.802 79.863 75.059 79.4876 75.5729C79.1247 76.0868 78.9433 76.7951 78.9433 77.6976V78.7881Z" fill="black" fill-opacity="0.8"/>
<path d="M99.8597 82.887V77.1899H94.2854V82.887H92.6526V70.1015H94.2854V75.6481H99.8597V70.1015H101.493V82.887H99.8597Z" fill="black" fill-opacity="0.8"/>
<path d="M112.484 77.66V78.7881C112.484 80.1168 112.14 81.1635 111.451 81.9281C110.776 82.6927 109.806 83.075 108.542 83.075C107.291 83.075 106.321 82.6927 105.633 81.9281C104.945 81.1635 104.601 80.1168 104.601 78.7881V77.66C104.601 76.3563 104.939 75.3222 105.614 74.5576C106.303 73.7804 107.279 73.3919 108.542 73.3919C109.806 73.3919 110.776 73.7804 111.451 74.5576C112.14 75.3222 112.484 76.3563 112.484 77.66ZM110.888 77.66C110.888 76.77 110.688 76.0743 110.288 75.5729C109.887 75.059 109.306 74.802 108.542 74.802C107.792 74.802 107.21 75.059 106.797 75.5729C106.396 76.0743 106.196 76.77 106.196 77.66V78.7881C106.196 79.7157 106.396 80.4302 106.797 80.9316C107.21 81.433 107.792 81.6837 108.542 81.6837C109.306 81.6837 109.887 81.433 110.288 80.9316C110.688 80.4302 110.888 79.7157 110.888 78.7881V77.66Z" fill="black" fill-opacity="0.8"/>
<path d="M120.386 82.5486C119.685 82.8995 118.94 83.075 118.152 83.075C117.476 83.075 116.945 82.9371 116.557 82.6614C116.181 82.3856 115.912 82.0158 115.75 81.552C115.6 81.0883 115.525 80.5743 115.525 80.0103V74.9336H113.91V73.5799H115.525V70.9852H117.064V73.5799H120.104V74.9336H117.064V79.9538C117.064 80.6057 117.17 81.0569 117.383 81.3076C117.608 81.5458 117.952 81.6649 118.415 81.6649C118.64 81.6649 118.872 81.6398 119.109 81.5896C119.36 81.527 119.629 81.4267 119.916 81.2888L120.386 82.5486Z" fill="black" fill-opacity="0.8"/>
<path d="M129.148 82.3417C128.585 82.6175 128.022 82.8055 127.459 82.9058C126.896 83.0186 126.377 83.075 125.901 83.075C124.563 83.075 123.562 82.6927 122.898 81.9281C122.248 81.1635 121.922 80.1168 121.922 78.7881V77.66C121.922 76.3689 122.248 75.3348 122.898 74.5576C123.562 73.7804 124.494 73.3919 125.695 73.3919C126.333 73.3919 126.915 73.5235 127.44 73.7867C127.978 74.0374 128.404 74.426 128.717 74.9524C129.042 75.4664 129.205 76.1307 129.205 76.9455C129.205 77.4719 129.13 78.0736 128.979 78.7505H123.443V78.7881C123.443 79.7408 123.637 80.4615 124.024 80.9504C124.425 81.4392 125.063 81.6837 125.939 81.6837C126.339 81.6837 126.777 81.6335 127.253 81.5332C127.741 81.433 128.216 81.2763 128.679 81.0632L129.148 82.3417ZM125.695 74.7456C124.969 74.7456 124.419 74.9838 124.043 75.4601C123.68 75.9239 123.48 76.582 123.443 77.4343H127.647C127.684 77.2087 127.703 76.9956 127.703 76.7951C127.703 76.0931 127.503 75.5792 127.103 75.2533C126.715 74.9148 126.245 74.7456 125.695 74.7456Z" fill="black" fill-opacity="0.8"/>
<path d="M131.849 80.6307V68.9733H133.388V80.5555C133.388 80.894 133.438 81.1509 133.538 81.3264C133.651 81.4894 133.87 81.5708 134.195 81.5708H134.496V82.981H134.064C133.238 82.981 132.662 82.7617 132.337 82.3229C132.012 81.8842 131.849 81.3201 131.849 80.6307Z" fill="black" fill-opacity="0.8"/>
<path d="M142.875 77.8856V82.887H141.242V70.1015H145.24C146.441 70.1015 147.367 70.4211 148.017 71.0604C148.68 71.6871 149.012 72.527 149.012 73.5799V74.3884C149.012 75.1405 148.837 75.7923 148.486 76.3438C148.149 76.8953 147.661 77.3027 147.023 77.566C147.561 78.4309 148.061 79.3083 148.524 80.1983C148.987 81.0883 149.412 81.9845 149.8 82.887H147.923C147.21 81.1823 146.378 79.5151 145.427 77.8856H142.875ZM145.24 71.6056H142.875V76.3814H145.24C145.878 76.3814 146.384 76.2059 146.76 75.855C147.135 75.4914 147.323 75.0026 147.323 74.3884V73.5799C147.323 72.9531 147.135 72.4705 146.76 72.1321C146.384 71.7811 145.878 71.6056 145.24 71.6056Z" fill="black" fill-opacity="0.8"/>
<path d="M158.914 82.3417C158.351 82.6175 157.788 82.8055 157.225 82.9058C156.662 83.0186 156.143 83.075 155.667 83.075C154.328 83.075 153.327 82.6927 152.664 81.9281C152.013 81.1635 151.688 80.1168 151.688 78.7881V77.66C151.688 76.3689 152.013 75.3348 152.664 74.5576C153.327 73.7804 154.259 73.3919 155.461 73.3919C156.099 73.3919 156.681 73.5235 157.206 73.7867C157.744 74.0374 158.17 74.426 158.482 74.9524C158.808 75.4664 158.97 76.1307 158.97 76.9455C158.97 77.4719 158.895 78.0736 158.745 78.7505H153.208V78.7881C153.208 79.7408 153.402 80.4615 153.79 80.9504C154.191 81.4392 154.829 81.6837 155.705 81.6837C156.105 81.6837 156.543 81.6335 157.018 81.5332C157.506 81.433 157.982 81.2763 158.445 81.0632L158.914 82.3417ZM155.461 74.7456C154.735 74.7456 154.184 74.9838 153.809 75.4601C153.446 75.9239 153.246 76.582 153.208 77.4343H157.413C157.45 77.2087 157.469 76.9956 157.469 76.7951C157.469 76.0931 157.269 75.5792 156.868 75.2533C156.48 74.9148 156.011 74.7456 155.461 74.7456Z" fill="black" fill-opacity="0.8"/>
<path d="M163.905 81.7025C165.156 81.7025 165.782 81.2763 165.782 80.4239C165.782 80.0604 165.669 79.7721 165.444 79.559C165.218 79.3459 164.806 79.1642 164.205 79.0137L163.173 78.7505C162.409 78.5625 161.84 78.2366 161.465 77.7728C161.089 77.2965 160.902 76.7324 160.902 76.0806C160.902 75.6043 161.008 75.1655 161.221 74.7644C161.433 74.3508 161.771 74.0186 162.234 73.7679C162.697 73.5172 163.298 73.3919 164.036 73.3919C164.512 73.3919 164.993 73.4483 165.481 73.5611C165.982 73.6614 166.488 73.8368 167.001 74.0875L166.514 75.3849C165.6 74.9712 164.774 74.7644 164.036 74.7644C162.947 74.7644 162.403 75.1718 162.403 75.9866C162.403 76.2999 162.503 76.5694 162.704 76.7951C162.904 77.0207 163.279 77.2024 163.83 77.3403L164.862 77.6036C165.688 77.8041 166.295 78.13 166.682 78.5813C167.07 79.0325 167.264 79.6154 167.264 80.3299C167.264 80.8438 167.152 81.3139 166.926 81.7401C166.714 82.1537 166.363 82.4796 165.875 82.7178C165.4 82.9559 164.756 83.075 163.942 83.075C163.404 83.075 162.866 83.0186 162.328 82.9058C161.803 82.793 161.258 82.6112 160.695 82.3605L161.108 81.082C161.646 81.2951 162.134 81.4518 162.572 81.552C163.01 81.6523 163.454 81.7025 163.905 81.7025Z" fill="black" fill-opacity="0.8"/>
<path d="M177.074 77.66V78.7881C177.074 80.1168 176.73 81.1635 176.042 81.9281C175.366 82.6927 174.396 83.075 173.133 83.075C171.881 83.075 170.912 82.6927 170.223 81.9281C169.535 81.1635 169.191 80.1168 169.191 78.7881V77.66C169.191 76.3563 169.529 75.3222 170.205 74.5576C170.893 73.7804 171.869 73.3919 173.133 73.3919C174.396 73.3919 175.366 73.7804 176.042 74.5576C176.73 75.3222 177.074 76.3563 177.074 77.66ZM175.479 77.66C175.479 76.77 175.278 76.0743 174.878 75.5729C174.478 75.059 173.896 74.802 173.133 74.802C172.382 74.802 171.8 75.059 171.387 75.5729C170.987 76.0743 170.786 76.77 170.786 77.66V78.7881C170.786 79.7157 170.987 80.4302 171.387 80.9316C171.8 81.433 172.382 81.6837 173.133 81.6837C173.896 81.6837 174.478 81.433 174.878 80.9316C175.278 80.4302 175.479 79.7157 175.479 78.7881V77.66Z" fill="black" fill-opacity="0.8"/>
<path d="M184.751 74.9336C184.187 74.9336 183.637 75.0339 183.099 75.2345C182.573 75.435 182.01 75.8173 181.41 76.3814V82.887H179.871V73.5799H181.335V75.0841C181.973 74.4573 182.555 74.0186 183.08 73.7679C183.618 73.5172 184.175 73.3919 184.751 73.3919V74.9336Z" fill="black" fill-opacity="0.8"/>
<path d="M191.867 82.5486C191.167 82.8995 190.422 83.075 189.634 83.075C188.958 83.075 188.426 82.9371 188.039 82.6614C187.663 82.3856 187.394 82.0158 187.231 81.552C187.081 81.0883 187.006 80.5743 187.006 80.0103V74.9336H185.392V73.5799H187.006V70.9852H188.545V73.5799H191.586V74.9336H188.545V79.9538C188.545 80.6057 188.652 81.0569 188.864 81.3076C189.09 81.5458 189.434 81.6649 189.897 81.6649C190.122 81.6649 190.353 81.6398 190.591 81.5896C190.841 81.527 191.11 81.4267 191.398 81.2888L191.867 82.5486Z" fill="black" fill-opacity="0.8"/>
<path d="M204.774 82.981C204.198 82.981 203.735 82.8494 203.385 82.5862C203.047 82.3229 202.809 81.997 202.672 81.6084C202.058 82.1474 201.502 82.5298 201.001 82.7554C200.501 82.9685 200 83.075 199.5 83.075C198.686 83.075 198.086 82.8118 197.698 82.2853C197.31 81.7589 197.116 81.1133 197.116 80.3487C197.116 79.8348 197.21 79.3772 197.398 78.9761C197.585 78.575 197.904 78.2616 198.355 78.036C198.805 77.7979 199.412 77.6788 200.175 77.6788C200.513 77.6788 200.882 77.7038 201.283 77.754C201.683 77.7916 202.09 77.8417 202.503 77.9044V76.6446C202.503 75.9427 202.346 75.4664 202.033 75.2157C201.733 74.9524 201.289 74.8208 200.701 74.8208C199.9 74.8208 199.005 75.0402 198.017 75.4789L197.529 74.2004C198.105 73.9371 198.655 73.7366 199.181 73.5987C199.706 73.4608 200.238 73.3919 200.776 73.3919C201.652 73.3919 202.321 73.536 202.784 73.8243C203.247 74.1126 203.566 74.4949 203.741 74.9712C203.917 75.4476 204.004 75.9678 204.004 76.5318V80.5555C204.004 80.8438 204.06 81.0883 204.173 81.2888C204.286 81.4768 204.511 81.5708 204.849 81.5708H205.055V82.981H204.774ZM198.636 80.3299C198.636 80.7561 198.736 81.1008 198.937 81.364C199.137 81.6272 199.425 81.7589 199.8 81.7589C200.125 81.7589 200.501 81.6649 200.926 81.4768C201.351 81.2763 201.877 80.8814 202.503 80.2923V79.1077C201.652 78.9699 200.901 78.9009 200.25 78.9009C199.675 78.9009 199.262 79.02 199.012 79.2582C198.761 79.4963 198.636 79.8536 198.636 80.3299Z" fill="black" fill-opacity="0.8"/>
<path d="M211.702 74.8396C211.352 74.8396 210.939 74.9274 210.464 75.1029C210.001 75.2784 209.438 75.6356 208.774 76.1746V82.887H207.235V73.5799H208.699V74.8772C209.362 74.3132 209.963 73.9246 210.501 73.7115C211.052 73.4984 211.577 73.3919 212.078 73.3919C212.941 73.3919 213.598 73.6676 214.048 74.2192C214.511 74.7582 214.743 75.529 214.743 76.5318V82.887H213.204V76.7575C213.204 75.4789 212.703 74.8396 211.702 74.8396Z" fill="black" fill-opacity="0.8"/>
<path d="M223.607 82.887V81.5896C223.031 82.1412 222.506 82.5298 222.03 82.7554C221.567 82.9685 221.086 83.075 220.585 83.075C219.597 83.075 218.833 82.699 218.295 81.9469C217.77 81.1948 217.507 80.1419 217.507 78.7881V77.6976C217.507 76.3814 217.833 75.3348 218.483 74.5576C219.146 73.7804 220.104 73.3919 221.355 73.3919C221.718 73.3919 222.08 73.4295 222.443 73.5047C222.806 73.5799 223.169 73.6864 223.532 73.8243V68.9733H225.071V82.887H223.607ZM219.103 78.7881C219.103 79.7658 219.253 80.4866 219.553 80.9504C219.866 81.4016 220.329 81.6272 220.942 81.6272C221.305 81.6272 221.68 81.5395 222.068 81.364C222.456 81.176 222.944 80.7937 223.532 80.2171V75.2533C223.169 75.0903 222.819 74.9775 222.481 74.9148C222.143 74.8396 221.811 74.802 221.486 74.802C220.635 74.802 220.022 75.059 219.647 75.5729C219.284 76.0868 219.103 76.7951 219.103 77.6976V78.7881Z" fill="black" fill-opacity="0.8"/>
<path d="M235.421 81.6084C236.209 81.6084 236.816 81.4392 237.241 81.1008C237.667 80.7498 237.879 80.2421 237.879 79.5778C237.879 79.0263 237.729 78.5625 237.429 78.1864C237.141 77.8104 236.666 77.5221 236.002 77.3215L234.482 76.8703C233.531 76.582 232.831 76.1495 232.38 75.5729C231.93 74.9838 231.704 74.263 231.704 73.4107C231.704 72.7588 231.83 72.1697 232.08 71.6432C232.343 71.1168 232.755 70.6969 233.319 70.3835C233.894 70.0701 234.645 69.9134 235.571 69.9134C236.134 69.9134 236.716 69.9824 237.316 70.1203C237.917 70.2456 238.524 70.4524 239.137 70.7407L238.611 72.1509C238.011 71.8877 237.466 71.6997 236.978 71.5868C236.503 71.4615 236.046 71.3988 235.608 71.3988C234.895 71.3988 234.338 71.5492 233.938 71.8501C233.55 72.1384 233.356 72.621 233.356 73.2978C233.356 73.7867 233.487 74.2004 233.75 74.5388C234.013 74.8647 234.482 75.1342 235.158 75.3473L236.678 75.7985C238.58 76.3626 239.531 77.5785 239.531 79.4462C239.531 80.5242 239.206 81.4016 238.555 82.0785C237.904 82.7428 236.86 83.075 235.421 83.075C234.833 83.075 234.207 83.0061 233.544 82.8682C232.893 82.7178 232.217 82.4859 231.517 82.1725L232.023 80.7811C232.687 81.082 233.281 81.2951 233.807 81.4204C234.345 81.5458 234.883 81.6084 235.421 81.6084Z" fill="black" fill-opacity="0.8"/>
<path d="M242.306 82.887V70.1015H246.285C247.511 70.1015 248.443 70.4274 249.081 71.0792C249.732 71.7185 250.057 72.5771 250.057 73.6551V74.6516C250.057 75.7296 249.732 76.5945 249.081 77.2463C248.443 77.8981 247.511 78.224 246.285 78.224H243.939V82.887H242.306ZM246.285 71.6432H243.939V76.7011H246.285C246.961 76.7011 247.474 76.5193 247.824 76.1558C248.187 75.7923 248.368 75.2909 248.368 74.6516V73.6551C248.368 73.0283 248.187 72.5395 247.824 72.1885C247.474 71.825 246.961 71.6432 246.285 71.6432Z" fill="black" fill-opacity="0.8"/>
<path d="M258.868 82.887L257.911 79.9162H253.069L252.112 82.887H250.517L254.758 70.1015H256.297L260.558 82.887H258.868ZM254.251 76.231L253.538 78.4309H257.423L256.71 76.231L255.49 72.2825L254.251 76.231Z" fill="black" fill-opacity="0.8"/>
<path d="M113.233 36.0365C113.233 34.2315 113.083 32.8777 112.782 31.9752C112.532 31.0225 111.982 30.3206 111.131 29.8693C110.33 29.4181 109.079 29.1674 107.377 29.1172V26.0337C112.132 26.2844 115.385 26.4097 117.137 26.4097C118.838 26.4097 122.117 26.2844 126.971 26.0337V29.1172C125.52 29.1674 124.469 29.4181 123.818 29.8693C123.218 30.3206 122.842 30.9724 122.692 31.8248C122.542 32.6771 122.467 34.081 122.467 36.0365V46.0393C120.315 47.0421 117.787 47.8443 114.885 48.446C112.032 49.0476 109.354 49.3485 106.852 49.3485C99.9447 49.3485 94.7897 47.4682 91.3863 43.7078C87.9829 39.8972 86.2812 34.3819 86.2812 27.1618C86.2812 21.5963 87.2072 16.808 89.059 12.7969C90.9108 8.73559 93.6135 5.62695 97.167 3.47096C100.721 1.31496 104.975 0.236969 109.93 0.236969C113.733 0.236969 117.912 0.738362 122.467 1.74115C122.167 4.69937 122.017 8.15899 122.017 12.12V14.6019H118.413C118.063 11.4431 117.087 8.96122 115.485 7.1562C113.934 5.35118 111.706 4.44867 108.803 4.44867C100.095 4.44867 95.7406 11.3428 95.7406 25.1312C95.7406 31.9501 96.6165 37.0393 98.3682 40.3986C100.17 43.7579 103.123 45.4376 107.227 45.4376C108.128 45.4376 109.104 45.2621 110.155 44.9111C111.256 44.5602 112.282 44.0838 113.233 43.4822V36.0365Z" fill="black" fill-opacity="0.8"/>
<path d="M146.594 36.0365C146.594 34.2315 146.744 32.8777 147.045 31.9752C147.295 31.0225 147.846 30.3206 148.696 29.8693C149.497 29.4181 150.748 29.1674 152.45 29.1172V26.0337C147.695 26.2844 144.442 26.4097 142.69 26.4097C140.989 26.4097 137.71 26.2844 132.856 26.0337V29.1172C134.307 29.1674 135.358 29.4181 136.009 29.8693C136.609 30.3206 136.985 30.9724 137.135 31.8248C137.285 32.6771 137.36 34.081 137.36 36.0365V46.0393C139.512 47.0421 142.04 47.8443 144.943 48.446C147.795 49.0476 150.473 49.3485 152.976 49.3485C159.882 49.3485 165.037 47.4682 168.441 43.7078C171.844 39.8972 173.546 34.3819 173.546 27.1618C173.546 21.5963 172.62 16.808 170.768 12.7969C168.916 8.73559 166.214 5.62695 162.66 3.47096C159.107 1.31496 154.852 0.236969 149.898 0.236969C146.094 0.236969 141.915 0.738362 137.36 1.74115C137.66 4.69937 137.811 8.15899 137.811 12.12V14.6019H141.414C141.765 11.4431 142.74 8.96122 144.342 7.1562C145.894 5.35118 148.121 4.44867 151.024 4.44867C159.732 4.44867 164.087 11.3428 164.087 25.1312C164.087 31.9501 163.211 37.0393 161.459 40.3986C159.657 43.7579 156.704 45.4376 152.6 45.4376C151.699 45.4376 150.723 45.2621 149.672 44.9111C148.571 44.5602 147.545 44.0838 146.594 43.4822V36.0365Z" fill="black" fill-opacity="0.8"/>
<path d="M226.395 25.8927V27.0678L188.858 27.0678L188.858 25.8927L226.395 25.8927Z" fill="url(#paint0_linear_63_38)"/>
<path d="M33.4317 27.0678L33.4317 25.8926L70.9688 25.8927L70.9687 27.0678L33.4317 27.0678Z" fill="url(#paint1_linear_63_38)"/>
<defs>
<linearGradient id="paint0_linear_63_38" x1="226.395" y1="26.4802" x2="188.858" y2="26.4802" gradientUnits="userSpaceOnUse">
<stop stop-opacity="0"/>
<stop offset="1"/>
</linearGradient>
<linearGradient id="paint1_linear_63_38" x1="33.4317" y1="26.4802" x2="70.9688" y2="26.4802" gradientUnits="userSpaceOnUse">
<stop stop-opacity="0"/>
<stop offset="1"/>
</linearGradient>
</defs>
</svg>
