<svg width="260" height="83" viewBox="0 0 260 83" fill="none" xmlns="http://www.w3.org/2000/svg">
<g clip-path="url(#clip0_208_6131)">
<path d="M8.63353 81.7663C8.27067 82.0045 7.75141 82.2426 7.07574 82.4808C6.41258 82.7189 5.61179 82.838 4.67337 82.838C3.65987 82.838 2.80277 82.6249 2.10208 82.1987C1.4139 81.76 0.888377 81.1521 0.525519 80.3749C0.175173 79.5852 0 78.6765 0 77.6486V74.8471C0 73.2426 0.400396 71.9829 1.20119 71.0678C2.01449 70.1402 3.19065 69.6764 4.72967 69.6764C5.29273 69.6764 5.88081 69.7391 6.49392 69.8645C7.11953 69.9898 7.73889 70.1966 8.352 70.4849L7.82648 71.8951C6.70037 71.4313 5.67436 71.1994 4.74844 71.1994C3.72243 71.1994 2.95292 71.5128 2.43991 72.1395C1.93942 72.7537 1.68917 73.6563 1.68917 74.8471V77.6486C1.68917 78.7767 1.94567 79.673 2.45868 80.3373C2.97169 81.0017 3.74745 81.3338 4.78598 81.3338C5.18637 81.3338 5.59302 81.29 6.00593 81.2022C6.43135 81.1145 6.80672 80.9954 7.13205 80.845V77.4042H4.74844V75.9564H8.63353V81.7663Z" fill="white" fill-opacity="0.8"/>
<path d="M16.4322 74.6966C15.8691 74.6966 15.3185 74.7969 14.7805 74.9975C14.255 75.198 13.6919 75.5804 13.0913 76.1444V82.65H11.5523V73.3429H13.0163V74.8471C13.6544 74.2203 14.2362 73.7816 14.7617 73.5309C15.2998 73.2802 15.8566 73.1549 16.4322 73.1549V74.6966Z" fill="white" fill-opacity="0.8"/>
<path d="M25.2381 82.744C24.6625 82.744 24.1996 82.6124 23.8492 82.3492C23.5114 82.0859 23.2737 81.76 23.136 81.3714C22.5229 81.9104 21.9661 82.2928 21.4656 82.5184C20.9651 82.7315 20.4646 82.838 19.9642 82.838C19.1509 82.838 18.5503 82.5748 18.1624 82.0483C17.7745 81.5219 17.5806 80.8763 17.5806 80.1117C17.5806 79.5978 17.6744 79.1402 17.8621 78.7391C18.0498 78.338 18.3688 78.0246 18.8193 77.799C19.2697 77.5609 19.8766 77.4418 20.6398 77.4418C20.9777 77.4418 21.3468 77.4668 21.7472 77.517C22.1476 77.5546 22.5542 77.6047 22.9671 77.6674V76.4076C22.9671 75.7057 22.8107 75.2294 22.4979 74.9787C22.1976 74.7154 21.7534 74.5838 21.1653 74.5838C20.3646 74.5838 19.4699 74.8032 18.4814 75.2419L17.9935 73.9634C18.569 73.7001 19.1196 73.4996 19.6451 73.3617C20.1706 73.2238 20.7024 73.1549 21.2404 73.1549C22.1163 73.1549 22.7857 73.299 23.2486 73.5873C23.7116 73.8756 24.0307 74.2579 24.2058 74.7342C24.381 75.2106 24.4686 75.7308 24.4686 76.2948V80.3185C24.4686 80.6068 24.5249 80.8513 24.6375 81.0518C24.7501 81.2398 24.9754 81.3338 25.3132 81.3338H25.5196V82.744H25.2381ZM19.1008 80.0929C19.1008 80.5191 19.2009 80.8638 19.4011 81.127C19.6013 81.3902 19.8891 81.5219 20.2645 81.5219C20.5898 81.5219 20.9651 81.4279 21.3906 81.2398C21.816 81.0393 22.3415 80.6444 22.9671 80.0553V78.8707C22.1163 78.7329 21.3655 78.6639 20.7149 78.6639C20.1393 78.6639 19.7264 78.783 19.4762 79.0212C19.2259 79.2593 19.1008 79.6166 19.1008 80.0929Z" fill="white" fill-opacity="0.8"/>
<path d="M32.1668 74.6026C31.8164 74.6026 31.4035 74.6904 30.9281 74.8659C30.4651 75.0414 29.902 75.3986 29.2389 75.9376V82.65H27.6999V73.3429H29.1638V74.6402C29.827 74.0762 30.4276 73.6876 30.9656 73.4745C31.5161 73.2614 32.0417 73.1549 32.5422 73.1549C33.4055 73.1549 34.0624 73.4306 34.5129 73.9822C34.9758 74.5212 35.2073 75.292 35.2073 76.2948V82.65H33.6683V76.5205C33.6683 75.2419 33.1678 74.6026 32.1668 74.6026Z" fill="white" fill-opacity="0.8"/>
<path d="M44.0715 82.65V81.3526C43.4959 81.9042 42.9704 82.2928 42.4949 82.5184C42.032 82.7315 41.5502 82.838 41.0497 82.838C40.0613 82.838 39.298 82.462 38.76 81.7099C38.2344 80.9578 37.9717 79.9049 37.9717 78.5511V77.4606C37.9717 76.1444 38.297 75.0978 38.9477 74.3206C39.6108 73.5434 40.568 73.1549 41.8192 73.1549C42.1821 73.1549 42.545 73.1925 42.9078 73.2677C43.2707 73.3429 43.6335 73.4494 43.9964 73.5873V68.7363H45.5354V82.65H44.0715ZM39.567 78.5511C39.567 79.5288 39.7172 80.2496 40.0175 80.7134C40.3303 81.1646 40.7932 81.3902 41.4063 81.3902C41.7692 81.3902 42.1446 81.3025 42.5324 81.127C42.9203 80.939 43.4083 80.5567 43.9964 79.9801V75.0163C43.6335 74.8533 43.2832 74.7405 42.9454 74.6778C42.6075 74.6026 42.2759 74.565 41.9506 74.565C41.0998 74.565 40.4867 74.822 40.1113 75.3359C39.7484 75.8498 39.567 76.5581 39.567 77.4606V78.5511Z" fill="white" fill-opacity="0.8"/>
<path d="M57.2594 81.7663C56.8966 82.0045 56.3773 82.2426 55.7017 82.4808C55.0385 82.7189 54.2377 82.838 53.2993 82.838C52.2858 82.838 51.4287 82.6249 50.728 82.1987C50.0398 81.76 49.5143 81.1521 49.1514 80.3749C48.8011 79.5852 48.6259 78.6765 48.6259 77.6486V74.8471C48.6259 73.2426 49.0263 71.9829 49.8271 71.0678C50.6404 70.1402 51.8166 69.6764 53.3556 69.6764C53.9186 69.6764 54.5067 69.7391 55.1198 69.8645C55.7454 69.9898 56.3648 70.1966 56.9779 70.4849L56.4524 71.8951C55.3263 71.4313 54.3003 71.1994 53.3744 71.1994C52.3483 71.1994 51.5788 71.5128 51.0658 72.1395C50.5653 72.7537 50.3151 73.6563 50.3151 74.8471V77.6486C50.3151 78.7767 50.5716 79.673 51.0846 80.3373C51.5976 81.0017 52.3734 81.3338 53.4119 81.3338C53.8123 81.3338 54.2189 81.29 54.6318 81.2022C55.0573 81.1145 55.4326 80.9954 55.758 80.845V77.4042H53.3744V75.9564H57.2594V81.7663Z" fill="white" fill-opacity="0.8"/>
<path d="M66.9725 82.744C66.3969 82.744 65.9339 82.6124 65.5836 82.3492C65.2458 82.0859 65.008 81.76 64.8704 81.3714C64.2573 81.9104 63.7005 82.2928 63.2 82.5184C62.6995 82.7315 62.199 82.838 61.6985 82.838C60.8852 82.838 60.2846 82.5748 59.8967 82.0483C59.5088 81.5219 59.3149 80.8763 59.3149 80.1117C59.3149 79.5978 59.4087 79.1402 59.5964 78.7391C59.7841 78.338 60.1032 78.0246 60.5536 77.799C61.0041 77.5609 61.6109 77.4418 62.3742 77.4418C62.712 77.4418 63.0811 77.4668 63.4815 77.517C63.8819 77.5546 64.2886 77.6047 64.7015 77.6674V76.4076C64.7015 75.7057 64.5451 75.2294 64.2322 74.9787C63.9319 74.7154 63.4878 74.5838 62.8997 74.5838C62.0989 74.5838 61.2043 74.8032 60.2158 75.2419L59.7278 73.9634C60.3034 73.7001 60.8539 73.4996 61.3794 73.3617C61.9049 73.2238 62.4367 73.1549 62.9748 73.1549C63.8506 73.1549 64.52 73.299 64.983 73.5873C65.4459 73.8756 65.765 74.2579 65.9402 74.7342C66.1154 75.2106 66.2029 75.7308 66.2029 76.2948V80.3185C66.2029 80.6068 66.2592 80.8513 66.3719 81.0518C66.4845 81.2398 66.7097 81.3338 67.0475 81.3338H67.254V82.744H66.9725ZM60.8351 80.0929C60.8351 80.5191 60.9352 80.8638 61.1354 81.127C61.3356 81.3902 61.6234 81.5219 61.9988 81.5219C62.3241 81.5219 62.6995 81.4279 63.1249 81.2398C63.5503 81.0393 64.0758 80.6444 64.7015 80.0553V78.8707C63.8506 78.7329 63.0999 78.6639 62.4492 78.6639C61.8737 78.6639 61.4608 78.783 61.2105 79.0212C60.9603 79.2593 60.8351 79.6166 60.8351 80.0929Z" fill="white" fill-opacity="0.8"/>
<path d="M74.314 74.6966C73.751 74.6966 73.2004 74.7969 72.6624 74.9975C72.1369 75.198 71.5738 75.5804 70.9732 76.1444V82.65H69.4342V73.3429H70.8982V74.8471C71.5363 74.2203 72.1181 73.7816 72.6436 73.5309C73.1817 73.2802 73.7385 73.1549 74.314 73.1549V74.6966Z" fill="white" fill-opacity="0.8"/>
<path d="M81.9751 82.65V81.3526C81.3995 81.9042 80.874 82.2928 80.3986 82.5184C79.9356 82.7315 79.4539 82.838 78.9534 82.838C77.9649 82.838 77.2016 82.462 76.6636 81.7099C76.1381 80.9578 75.8753 79.9049 75.8753 78.5511V77.4606C75.8753 76.1444 76.2007 75.0978 76.8513 74.3206C77.5145 73.5434 78.4716 73.1549 79.7229 73.1549C80.0857 73.1549 80.4486 73.1925 80.8115 73.2677C81.1743 73.3429 81.5372 73.4494 81.9 73.5873V68.7363H83.4391V82.65H81.9751ZM77.4707 78.5511C77.4707 79.5288 77.6208 80.2496 77.9211 80.7134C78.2339 81.1646 78.6969 81.3902 79.31 81.3902C79.6728 81.3902 80.0482 81.3025 80.4361 81.127C80.824 80.939 81.312 80.5567 81.9 79.9801V75.0163C81.5372 74.8533 81.1868 74.7405 80.849 74.6778C80.5112 74.6026 80.1796 74.565 79.8543 74.565C79.0034 74.565 78.3903 74.822 78.0149 75.3359C77.6521 75.8498 77.4707 76.5581 77.4707 77.4606V78.5511Z" fill="white" fill-opacity="0.8"/>
<path d="M98.387 82.65V76.9529H92.8128V82.65H91.1799V69.8645H92.8128V75.4111H98.387V69.8645H100.02V82.65H98.387Z" fill="white" fill-opacity="0.8"/>
<path d="M111.011 77.423V78.5511C111.011 79.8798 110.667 80.9265 109.979 81.6911C109.303 82.4557 108.333 82.838 107.07 82.838C105.818 82.838 104.849 82.4557 104.161 81.6911C103.472 80.9265 103.128 79.8798 103.128 78.5511V77.423C103.128 76.1193 103.466 75.0852 104.142 74.3206C104.83 73.5434 105.806 73.1549 107.07 73.1549C108.333 73.1549 109.303 73.5434 109.979 74.3206C110.667 75.0852 111.011 76.1193 111.011 77.423ZM109.416 77.423C109.416 76.533 109.216 75.8373 108.815 75.3359C108.415 74.822 107.833 74.565 107.07 74.565C106.319 74.565 105.737 74.822 105.324 75.3359C104.924 75.8373 104.724 76.533 104.724 77.423V78.5511C104.724 79.4787 104.924 80.1932 105.324 80.6946C105.737 81.196 106.319 81.4467 107.07 81.4467C107.833 81.4467 108.415 81.196 108.815 80.6946C109.216 80.1932 109.416 79.4787 109.416 78.5511V77.423Z" fill="white" fill-opacity="0.8"/>
<path d="M118.913 82.3116C118.212 82.6625 117.468 82.838 116.679 82.838C116.004 82.838 115.472 82.7001 115.084 82.4244C114.709 82.1486 114.44 81.7788 114.277 81.315C114.127 80.8513 114.052 80.3373 114.052 79.7733V74.6966H112.438V73.3429H114.052V70.7482H115.591V73.3429H118.631V74.6966H115.591V79.7168C115.591 80.3687 115.697 80.8199 115.91 81.0706C116.135 81.3088 116.479 81.4279 116.942 81.4279C117.167 81.4279 117.399 81.4028 117.637 81.3526C117.887 81.29 118.156 81.1897 118.444 81.0518L118.913 82.3116Z" fill="white" fill-opacity="0.8"/>
<path d="M127.676 82.1047C127.113 82.3805 126.55 82.5685 125.986 82.6688C125.423 82.7816 124.904 82.838 124.429 82.838C123.09 82.838 122.089 82.4557 121.426 81.6911C120.775 80.9265 120.45 79.8798 120.45 78.5511V77.423C120.45 76.1319 120.775 75.0978 121.426 74.3206C122.089 73.5434 123.021 73.1549 124.222 73.1549C124.86 73.1549 125.442 73.2865 125.968 73.5497C126.506 73.8004 126.931 74.189 127.244 74.7154C127.569 75.2294 127.732 75.8937 127.732 76.7085C127.732 77.235 127.657 77.8366 127.507 78.5135H121.97V78.5511C121.97 79.5038 122.164 80.2245 122.552 80.7134C122.952 81.2022 123.59 81.4467 124.466 81.4467C124.867 81.4467 125.305 81.3965 125.78 81.2962C126.268 81.196 126.743 81.0393 127.206 80.8262L127.676 82.1047ZM124.222 74.5086C123.496 74.5086 122.946 74.7468 122.571 75.2231C122.208 75.6869 122.008 76.345 121.97 77.1973H126.174C126.212 76.9717 126.23 76.7586 126.23 76.5581C126.23 75.8561 126.03 75.3422 125.63 75.0163C125.242 74.6778 124.773 74.5086 124.222 74.5086Z" fill="white" fill-opacity="0.8"/>
<path d="M130.377 80.3937V68.7363H131.916V80.3185C131.916 80.657 131.966 80.9139 132.066 81.0894C132.178 81.2524 132.397 81.3338 132.723 81.3338H133.023V82.744H132.591C131.765 82.744 131.19 82.5247 130.865 82.0859C130.539 81.6472 130.377 81.0831 130.377 80.3937Z" fill="white" fill-opacity="0.8"/>
<path d="M141.402 77.6486V82.65H139.769V69.8645H143.767C144.968 69.8645 145.894 70.1841 146.545 70.8234C147.208 71.4501 147.539 72.29 147.539 73.3429V74.1514C147.539 74.9035 147.364 75.5553 147.014 76.1068C146.676 76.6583 146.188 77.0657 145.55 77.329C146.088 78.1939 146.588 79.0713 147.051 79.9613C147.514 80.8513 147.94 81.7475 148.328 82.65H146.451C145.738 80.9453 144.905 79.2781 143.955 77.6486H141.402ZM143.767 71.3686H141.402V76.1444H143.767C144.405 76.1444 144.912 75.9689 145.287 75.618C145.662 75.2544 145.85 74.7656 145.85 74.1514V73.3429C145.85 72.7161 145.662 72.2335 145.287 71.8951C144.912 71.5441 144.405 71.3686 143.767 71.3686Z" fill="white" fill-opacity="0.8"/>
<path d="M157.441 82.1047C156.878 82.3805 156.315 82.5685 155.752 82.6688C155.189 82.7816 154.67 82.838 154.194 82.838C152.856 82.838 151.855 82.4557 151.191 81.6911C150.541 80.9265 150.215 79.8798 150.215 78.5511V77.423C150.215 76.1319 150.541 75.0978 151.191 74.3206C151.855 73.5434 152.787 73.1549 153.988 73.1549C154.626 73.1549 155.208 73.2865 155.733 73.5497C156.271 73.8004 156.697 74.189 157.01 74.7154C157.335 75.2294 157.498 75.8937 157.498 76.7085C157.498 77.235 157.423 77.8366 157.272 78.5135H151.736V78.5511C151.736 79.5038 151.93 80.2245 152.318 80.7134C152.718 81.2022 153.356 81.4467 154.232 81.4467C154.632 81.4467 155.07 81.3965 155.546 81.2962C156.034 81.196 156.509 81.0393 156.972 80.8262L157.441 82.1047ZM153.988 74.5086C153.262 74.5086 152.712 74.7468 152.336 75.2231C151.973 75.6869 151.773 76.345 151.736 77.1973H155.94C155.977 76.9717 155.996 76.7586 155.996 76.5581C155.996 75.8561 155.796 75.3422 155.396 75.0163C155.008 74.6778 154.538 74.5086 153.988 74.5086Z" fill="white" fill-opacity="0.8"/>
<path d="M162.432 81.4655C163.683 81.4655 164.309 81.0393 164.309 80.1869C164.309 79.8234 164.196 79.5351 163.971 79.322C163.746 79.1089 163.333 78.9272 162.732 78.7767L161.7 78.5135C160.937 78.3255 160.367 77.9996 159.992 77.5358C159.617 77.0595 159.429 76.4954 159.429 75.8436C159.429 75.3673 159.535 74.9285 159.748 74.5274C159.961 74.1138 160.299 73.7816 160.762 73.5309C161.225 73.2802 161.825 73.1549 162.563 73.1549C163.039 73.1549 163.521 73.2113 164.009 73.3241C164.509 73.4244 165.016 73.5998 165.529 73.8505L165.041 75.1479C164.127 74.7342 163.302 74.5274 162.563 74.5274C161.475 74.5274 160.931 74.9348 160.931 75.7496C160.931 76.0629 161.031 76.3324 161.231 76.5581C161.431 76.7837 161.806 76.9655 162.357 77.1033L163.389 77.3666C164.215 77.5671 164.822 77.893 165.21 78.3443C165.598 78.7955 165.792 79.3784 165.792 80.0929C165.792 80.6068 165.679 81.0769 165.454 81.5031C165.241 81.9167 164.891 82.2426 164.403 82.4808C163.927 82.7189 163.283 82.838 162.47 82.838C161.932 82.838 161.394 82.7816 160.855 82.6688C160.33 82.556 159.786 82.3742 159.223 82.1235L159.636 80.845C160.174 81.0581 160.662 81.2148 161.099 81.315C161.537 81.4153 161.982 81.4655 162.432 81.4655Z" fill="white" fill-opacity="0.8"/>
<path d="M175.601 77.423V78.5511C175.601 79.8798 175.257 80.9265 174.569 81.6911C173.893 82.4557 172.924 82.838 171.66 82.838C170.409 82.838 169.439 82.4557 168.751 81.6911C168.063 80.9265 167.718 79.8798 167.718 78.5511V77.423C167.718 76.1193 168.056 75.0852 168.732 74.3206C169.42 73.5434 170.396 73.1549 171.66 73.1549C172.924 73.1549 173.893 73.5434 174.569 74.3206C175.257 75.0852 175.601 76.1193 175.601 77.423ZM174.006 77.423C174.006 76.533 173.806 75.8373 173.405 75.3359C173.005 74.822 172.423 74.565 171.66 74.565C170.909 74.565 170.327 74.822 169.914 75.3359C169.514 75.8373 169.314 76.533 169.314 77.423V78.5511C169.314 79.4787 169.514 80.1932 169.914 80.6946C170.327 81.196 170.909 81.4467 171.66 81.4467C172.423 81.4467 173.005 81.196 173.405 80.6946C173.806 80.1932 174.006 79.4787 174.006 78.5511V77.423Z" fill="white" fill-opacity="0.8"/>
<path d="M183.278 74.6966C182.715 74.6966 182.164 74.7969 181.626 74.9975C181.101 75.198 180.538 75.5804 179.937 76.1444V82.65H178.398V73.3429H179.862V74.8471C180.5 74.2203 181.082 73.7816 181.607 73.5309C182.145 73.2802 182.702 73.1549 183.278 73.1549V74.6966Z" fill="white" fill-opacity="0.8"/>
<path d="M190.395 82.3116C189.694 82.6625 188.949 82.838 188.161 82.838C187.486 82.838 186.954 82.7001 186.566 82.4244C186.191 82.1486 185.921 81.7788 185.759 81.315C185.609 80.8513 185.534 80.3373 185.534 79.7733V74.6966H183.92V73.3429H185.534V70.7482H187.073V73.3429H190.113V74.6966H187.073V79.7168C187.073 80.3687 187.179 80.8199 187.392 81.0706C187.617 81.3088 187.961 81.4279 188.424 81.4279C188.649 81.4279 188.881 81.4028 189.118 81.3526C189.369 81.29 189.638 81.1897 189.925 81.0518L190.395 82.3116Z" fill="white" fill-opacity="0.8"/>
<path d="M203.301 82.744C202.725 82.744 202.262 82.6124 201.912 82.3492C201.574 82.0859 201.337 81.76 201.199 81.3714C200.586 81.9104 200.029 82.2928 199.528 82.5184C199.028 82.7315 198.527 82.838 198.027 82.838C197.214 82.838 196.613 82.5748 196.225 82.0483C195.837 81.5219 195.643 80.8763 195.643 80.1117C195.643 79.5978 195.737 79.1402 195.925 78.7391C196.113 78.338 196.432 78.0246 196.882 77.799C197.333 77.5609 197.939 77.4418 198.703 77.4418C199.04 77.4418 199.41 77.4668 199.81 77.517C200.21 77.5546 200.617 77.6047 201.03 77.6674V76.4076C201.03 75.7057 200.874 75.2294 200.561 74.9787C200.26 74.7154 199.816 74.5838 199.228 74.5838C198.427 74.5838 197.533 74.8032 196.544 75.2419L196.056 73.9634C196.632 73.7001 197.182 73.4996 197.708 73.3617C198.233 73.2238 198.765 73.1549 199.303 73.1549C200.179 73.1549 200.849 73.299 201.311 73.5873C201.774 73.8756 202.094 74.2579 202.269 74.7342C202.444 75.2106 202.531 75.7308 202.531 76.2948V80.3185C202.531 80.6068 202.588 80.8513 202.7 81.0518C202.813 81.2398 203.038 81.3338 203.376 81.3338H203.582V82.744H203.301ZM197.164 80.0929C197.164 80.5191 197.264 80.8638 197.464 81.127C197.664 81.3902 197.952 81.5219 198.327 81.5219C198.653 81.5219 199.028 81.4279 199.453 81.2398C199.879 81.0393 200.404 80.6444 201.03 80.0553V78.8707C200.179 78.7329 199.428 78.6639 198.778 78.6639C198.202 78.6639 197.789 78.783 197.539 79.0212C197.289 79.2593 197.164 79.6166 197.164 80.0929Z" fill="white" fill-opacity="0.8"/>
<path d="M210.23 74.6026C209.879 74.6026 209.466 74.6904 208.991 74.8659C208.528 75.0414 207.965 75.3986 207.302 75.9376V82.65H205.763V73.3429H207.227V74.6402C207.89 74.0762 208.49 73.6876 209.028 73.4745C209.579 73.2614 210.105 73.1549 210.605 73.1549C211.468 73.1549 212.125 73.4306 212.576 73.9822C213.039 74.5212 213.27 75.292 213.27 76.2948V82.65H211.731V76.5205C211.731 75.2419 211.231 74.6026 210.23 74.6026Z" fill="white" fill-opacity="0.8"/>
<path d="M222.134 82.65V81.3526C221.559 81.9042 221.033 82.2928 220.558 82.5184C220.095 82.7315 219.613 82.838 219.113 82.838C218.124 82.838 217.361 82.462 216.823 81.7099C216.297 80.9578 216.035 79.9049 216.035 78.5511V77.4606C216.035 76.1444 216.36 75.0978 217.01 74.3206C217.674 73.5434 218.631 73.1549 219.882 73.1549C220.245 73.1549 220.608 73.1925 220.971 73.2677C221.334 73.3429 221.696 73.4494 222.059 73.5873V68.7363H223.598V82.65H222.134ZM217.63 78.5511C217.63 79.5288 217.78 80.2496 218.08 80.7134C218.393 81.1646 218.856 81.3902 219.469 81.3902C219.832 81.3902 220.207 81.3025 220.595 81.127C220.983 80.939 221.471 80.5567 222.059 79.9801V75.0163C221.696 74.8533 221.346 74.7405 221.008 74.6778C220.67 74.6026 220.339 74.565 220.013 74.565C219.163 74.565 218.55 74.822 218.174 75.3359C217.811 75.8498 217.63 76.5581 217.63 77.4606V78.5511Z" fill="white" fill-opacity="0.8"/>
<path d="M233.948 81.3714C234.736 81.3714 235.343 81.2022 235.768 80.8638C236.194 80.5128 236.407 80.0051 236.407 79.3408C236.407 78.7893 236.256 78.3255 235.956 77.9494C235.668 77.5734 235.193 77.2851 234.53 77.0845L233.01 76.6333C232.059 76.345 231.358 75.9125 230.907 75.3359C230.457 74.7468 230.232 74.026 230.232 73.1737C230.232 72.5218 230.357 71.9327 230.607 71.4062C230.87 70.8798 231.283 70.4599 231.846 70.1465C232.421 69.8331 233.172 69.6764 234.098 69.6764C234.661 69.6764 235.243 69.7454 235.844 69.8833C236.444 70.0086 237.051 70.2154 237.664 70.5037L237.139 71.9139C236.538 71.6507 235.994 71.4627 235.506 71.3498C235.03 71.2245 234.574 71.1618 234.136 71.1618C233.422 71.1618 232.866 71.3122 232.465 71.6131C232.077 71.9014 231.883 72.384 231.883 73.0608C231.883 73.5497 232.015 73.9634 232.278 74.3018C232.54 74.6277 233.01 74.8972 233.685 75.1103L235.205 75.5615C237.107 76.1256 238.058 77.3415 238.058 79.2092C238.058 80.2872 237.733 81.1646 237.082 81.8415C236.432 82.5058 235.387 82.838 233.948 82.838C233.36 82.838 232.734 82.7691 232.071 82.6312C231.42 82.4808 230.745 82.2489 230.044 81.9355L230.551 80.5441C231.214 80.845 231.808 81.0581 232.334 81.1834C232.872 81.3088 233.41 81.3714 233.948 81.3714Z" fill="white" fill-opacity="0.8"/>
<path d="M240.833 82.65V69.8645H244.812C246.038 69.8645 246.971 70.1904 247.609 70.8422C248.259 71.4815 248.585 72.3401 248.585 73.4181V74.4146C248.585 75.4926 248.259 76.3575 247.609 77.0093C246.971 77.6611 246.038 77.987 244.812 77.987H242.466V82.65H240.833ZM244.812 71.4062H242.466V76.4641H244.812C245.488 76.4641 246.001 76.2823 246.351 75.9188C246.714 75.5553 246.896 75.0539 246.896 74.4146V73.4181C246.896 72.7913 246.714 72.3025 246.351 71.9515C246.001 71.588 245.488 71.4062 244.812 71.4062Z" fill="white" fill-opacity="0.8"/>
<path d="M257.396 82.65L256.439 79.6792H251.596L250.639 82.65H249.044L253.286 69.8645H254.825L259.085 82.65H257.396ZM252.779 75.994L252.066 78.1939H255.951L255.237 75.994L254.018 72.0455L252.779 75.994Z" fill="white" fill-opacity="0.8"/>
<path d="M111.76 35.7995C111.76 33.9945 111.61 32.6407 111.31 31.7382C111.06 30.7856 110.509 30.0836 109.658 29.6324C108.857 29.1811 107.606 28.9304 105.904 28.8803V25.7967C110.659 26.0474 113.912 26.1727 115.664 26.1727C117.366 26.1727 120.644 26.0474 125.499 25.7967V28.8803C124.047 28.9304 122.996 29.1811 122.346 29.6324C121.745 30.0836 121.37 30.7354 121.22 31.5878C121.069 32.4402 120.994 33.8441 120.994 35.7995V45.8023C118.842 46.8051 116.315 47.6073 113.412 48.209C110.559 48.8107 107.881 49.1115 105.379 49.1115C98.4721 49.1115 93.317 47.2313 89.9136 43.4708C86.5103 39.6602 84.8086 34.1449 84.8086 26.9248C84.8086 21.3594 85.7345 16.5711 87.5863 12.5599C89.4382 8.49862 92.1408 5.38998 95.6943 3.23399C99.2479 1.078 103.502 0 108.457 0C112.261 0 116.44 0.501393 120.994 1.50418C120.694 4.4624 120.544 7.92202 120.544 11.883V14.3649H116.94C116.59 11.2061 115.614 8.72425 114.012 6.91923C112.461 5.11421 110.234 4.21171 107.331 4.21171C98.6222 4.21171 94.2679 11.1059 94.2679 24.8942C94.2679 31.7131 95.1438 36.8023 96.8955 40.1616C98.6973 43.521 101.65 45.2006 105.754 45.2006C106.655 45.2006 107.631 45.0251 108.682 44.6742C109.783 44.3232 110.809 43.8469 111.76 43.2452V35.7995Z" fill="white" fill-opacity="0.8"/>
<path d="M145.122 35.7995C145.122 33.9945 145.272 32.6407 145.572 31.7382C145.822 30.7856 146.373 30.0836 147.224 29.6324C148.024 29.1811 149.276 28.9304 150.977 28.8803V25.7967C146.223 26.0474 142.969 26.1727 141.218 26.1727C139.516 26.1727 136.238 26.0474 131.383 25.7967V28.8803C132.834 28.9304 133.886 29.1811 134.536 29.6324C135.137 30.0836 135.512 30.7354 135.662 31.5878C135.812 32.4402 135.887 33.8441 135.887 35.7995V45.8023C138.04 46.8051 140.567 47.6073 143.47 48.209C146.323 48.8107 149 49.1115 151.503 49.1115C158.41 49.1115 163.565 47.2313 166.968 43.4708C170.372 39.6602 172.073 34.1449 172.073 26.9248C172.073 21.3594 171.147 16.5711 169.295 12.5599C167.444 8.49862 164.741 5.38998 161.187 3.23399C157.634 1.078 153.38 0 148.425 0C144.621 0 140.442 0.501393 135.887 1.50418C136.188 4.4624 136.338 7.92202 136.338 11.883V14.3649H139.942C140.292 11.2061 141.268 8.72425 142.869 6.91923C144.421 5.11421 146.648 4.21171 149.551 4.21171C158.26 4.21171 162.614 11.1059 162.614 24.8942C162.614 31.7131 161.738 36.8023 159.986 40.1616C158.185 43.521 155.232 45.2006 151.128 45.2006C150.227 45.2006 149.251 45.0251 148.2 44.6742C147.099 44.3232 146.073 43.8469 145.122 43.2452V35.7995Z" fill="white" fill-opacity="0.8"/>
<path d="M224.923 25.6553V26.8304L187.386 26.8304L187.386 25.6553L224.923 25.6553Z" fill="url(#paint0_linear_208_6131)"/>
<path d="M31.959 26.8301L31.959 25.6549L69.4961 25.6549L69.4961 26.8301L31.959 26.8301Z" fill="url(#paint1_linear_208_6131)"/>
</g>
<defs>
<linearGradient id="paint0_linear_208_6131" x1="224.923" y1="26.2428" x2="187.386" y2="26.2428" gradientUnits="userSpaceOnUse">
<stop stop-color="white" stop-opacity="0"/>
<stop offset="1" stop-color="white"/>
</linearGradient>
<linearGradient id="paint1_linear_208_6131" x1="31.959" y1="26.2425" x2="69.4961" y2="26.2425" gradientUnits="userSpaceOnUse">
<stop stop-color="white" stop-opacity="0"/>
<stop offset="1" stop-color="white"/>
</linearGradient>
<clipPath id="clip0_208_6131">
<rect width="260" height="83" fill="white"/>
</clipPath>
</defs>
</svg>
